<svg height="44" viewBox="0 0 46 44" width="46" xmlns="http://www.w3.org/2000/svg"><g fill="none"><circle cx="23" cy="23" fill="#efd358" r="13"/><path d="m8.7998047 9.7998047c-.2558594 0-.5117188-.0976562-.7070312-.2929688l-1.3999024-1.399414c-.390625-.390625-.390625-1.0234375 0-1.4140625.3896484-.390625 1.0234375-.390625 1.4140625 0l1.3999023 1.3994141c.390625.390625.390625 1.0234375 0 1.4140625-.1948242.1953124-.4511718.2929687-.7070312.2929687zm14.2001953-5.7998047c-.5522461 0-1-.4472656-1-1v-2c0-.5527344.4477539-1 1-1s1 .4472656 1 1v2c0 .5527344-.4477539 1-1 1zm14.2001953 5.7998047c-.2558594 0-.5117188-.0976562-.7070312-.2929688-.390625-.390625-.390625-1.0234375 0-1.4140625l1.3999023-1.3994141c.390625-.390625 1.0234375-.390625 1.4140625 0s.390625 1.0234375 0 1.4140625l-1.3999023 1.3994141c-.1953125.1953125-.4511719.2929688-.7070313.2929688zm7.7998047 14.2001953h-2c-.5522461 0-1-.4472656-1-1s.4477539-1 1-1h2c.5522461 0 1 .4472656 1 1s-.4477539 1-1 1zm-6.3999023 15.5996094c-.2558594 0-.5117188-.0976562-.7070312-.2929688l-1.3999023-1.3994141c-.390625-.390625-.390625-1.0234375 0-1.4140625.3896484-.390625 1.0234375-.390625 1.4140625 0l1.3999023 1.3994141c.390625.390625.390625 1.0234375 0 1.4140625-.1948243.1953125-.451172.2929688-.7070313.2929688z" fill="#efd358"/><path d="m15 36h-14c-.5522461 0-1-.4472656-1-1s.4477539-1 1-1h14c.5522461 0 1 .4472656 1 1s-.4477539 1-1 1zm4-8h-14c-.5522461 0-1-.4472656-1-1s.4477539-1 1-1h14c.5522461 0 1 .4472656 1 1s-.4477539 1-1 1zm6 16h-16c-.5522461 0-1-.4472656-1-1s.4477539-1 1-1h16c.5522461 0 1 .4472656 1 1s-.4477539 1-1 1z" fill="#42a6dd"/></g></svg>