<svg height="44" viewBox="0 0 52 44" width="52" xmlns="http://www.w3.org/2000/svg"><g fill="none"><path d="m3.38461538 27.0769231h-2.25641025c-.62359779 0-1.12820513-.5051583-1.12820513-1.1282052 0-.6230468.50460734-1.1282051 1.12820513-1.1282051h2.25641025c.62359779 0 1.12820513.5051583 1.12820513 1.1282051 0 .6230469-.50460734 1.1282052-1.12820513 1.1282052zm6.54336941-16.0207332c-.28866189 0-.57732377-.1101762-.79767623-.3305289l-1.57882616-1.57937694c-.44070513-.44070513-.44070513-1.15519834 0-1.59535256.44070513-.44070513 1.15464744-.44070513 1.59535256 0l1.57882614 1.57937695c.4407052.44070513.4407052 1.15519835 0 1.59535255-.2203526.2203526-.5090144.3305289-.79767631.3305289zm16.02073311-6.54336939c-.6235977 0-1.1282051-.50515824-1.1282051-1.12820513v-2.25641025c0-.62304688.5046074-1.12820513 1.1282051-1.12820513.6235978 0 1.1282052.50515825 1.1282052 1.12820513v2.25641025c0 .62304689-.5046074 1.12820513-1.1282052 1.12820513zm16.0207332 6.54336939c-.2886619 0-.5773238-.1101762-.7976762-.3305289-.4407051-.4401542-.4407051-1.15464742 0-1.59535255l1.5788261-1.57937695c.4407052-.44070513 1.1546475-.44070513 1.5953526 0 .4407051.44015422.4407051 1.15464743 0 1.59535256l-1.5788262 1.57937694c-.2203525.2203526-.5090144.3305289-.7976763.3305289zm8.7997797 16.0207332h-2.2564103c-.6235978 0-1.1282051-.5051583-1.1282051-1.1282052 0-.6230468.5046073-1.1282051 1.1282051-1.1282051h2.2564103c.6235978 0 1.1282051.5051583 1.1282051 1.1282051 0 .6230469-.5046073 1.1282052-1.1282051 1.1282052z" fill="#ea9860"/><path d="m50.7692308 36.1025641h-49.64102567c-.62359779 0-1.12820513-.5051582-1.12820513-1.1282051s.50460734-1.1282052 1.12820513-1.1282052h49.64102567c.6235978 0 1.1282051.5051583 1.1282051 1.1282052s-.5046073 1.1282051-1.1282051 1.1282051zm-6.7692308 7.8974359h-36.1025641c-.62359779 0-1.12820513-.5051582-1.12820513-1.1282051s.50460734-1.1282052 1.12820513-1.1282052h36.1025641c.6235978 0 1.1282051.5051583 1.1282051 1.1282052s-.5046073 1.1282051-1.1282051 1.1282051z" fill="#42a6dd"/><path d="m38.2945212 33.8461538c1.4623148-2.281131 2.3208634-4.9866473 2.3208634-7.8974359 0-8.1001602-6.5665064-14.6666666-14.6666667-14.6666666-8.1001602 0-14.6666666 6.5665064-14.6666666 14.6666666 0 2.9107886.8585486 5.6163049 2.3208634 7.8974359z" fill="#ea9860"/></g></svg>