<svg height="44" viewBox="0 0 46 44" width="46" xmlns="http://www.w3.org/2000/svg"><g fill="none"><path d="m45 30h-44c-.5527344 0-1-.4477539-1-1s.4472656-1 1-1h44c.5527344 0 1 .4477539 1 1s-.4472656 1-1 1zm-6 7h-32c-.5527344 0-1-.4477539-1-1s.4472656-1 1-1h32c.5527344 0 1 .4477539 1 1s-.4472656 1-1 1zm-6 7h-20c-.5527344 0-1-.4477539-1-1s.4472656-1 1-1h20c.5527344 0 1 .4477539 1 1s-.4472656 1-1 1z" fill="#42a6dd"/><path d="m42.77948 28c.7762451-2.1924438 1.22052-4.541626 1.22052-7 0-11.5980225-9.4020386-21-21-21s-21 9.4019775-21 21c0 2.458374.4442749 4.8075562 1.22052 7z" fill="#ea9860"/></g></svg>